<svg id="Layer_1" data-name="Layer 1" xmlns="http://www.w3.org/2000/svg" viewBox="0 0 290.68 60.51"><defs><style>.cls-1{fill:none;}</style></defs><title>logo_transparent</title><path class="cls-1" d="M89.9,53.92c-3.51.86-5.31-.2-7.89-1.05-2.94-1-5.28-2.77-10.08-2.37a7.36,7.36,0,0,1-5.8-1.84,3.84,3.84,0,0,0-2.66-1c-3.09-.32-5.82-.93-6.82-2.61-.25-.42-1.71-.72-2.71-1-2-.54-4.08-1-6-1.53-.63-.18-1.44-.56-1.43-.85.07-1.3-2.17-1.21-3.78-1.63-2.41-.62-4.5-1.5-6.77-2.23-1.52-.5-3.14-.92-4.65-1.41C30,36,28.74,35.56,27.1,35l2.11-.34L21,31.07l.43-.33,2,.14L15,27.13l.63-.38c5.14,1.85,9.89,4,16.79,4.39-6.35-1.7-12.62-3.44-16.25-6.7L31.54,29.1l.36-.21-9.79-5.82.62-.34c1.36.45,2.79.87,4.08,1.36,4,1.54,7.48,3.43,11.89,4.58a150.39,150.39,0,0,0,30.24,4.86c5.28.29,10.6.39,15.91.56.58,0,1.16,0,1.61-.05-1.6-1.4-3.14-2.77-4.69-4.14l.69-.24c5.26,3.89,14.21,4.18,22.43,5.14,4.39.51,8.81,1,13.27,1.28,4,.26,8,.3,12,.37a17.39,17.39,0,0,0,3-.36,12.81,12.81,0,0,1,5.77.09c2.79.77,10.64-.58,11.92-2a5.06,5.06,0,0,0,1.51-3.33c-.1-3,4-5,9.62-4.3,2.26.27,3.65.93,4.08,2.05a19.75,19.75,0,0,0,1.63,3.25c1.23,2,7.28,4.21,11.7,4.33a12.57,12.57,0,0,0,1.44-.22,18.29,18.29,0,0,1,6.68,0,20.94,20.94,0,0,0,5.15.31c7.52-.29,15.07-.49,22.22-1.81,1.63-.29,3.5-.3,5.18-.55,6.89-1,14.28-1.65,18.33-5.07l.92.34-3.89,3.92c25.18.49,45.55-4.56,64.54-11.44-.32,1.63-3.2,2.15-5.09,3s-4.31,1.7-6.31,2.66a87.25,87.25,0,0,0,15.57-4.45c-3.46,3.12-8.93,5.22-15.5,6.78C295.23,29.08,300,27,305,25.12l.69.42-8.24,3.65,1.71-.09.52.26L292.19,33l1.12.18c-1.11,1.22-3.36,1.85-5.69,2.45-.7.17-1.83.31-2,.57-1.19,2.06-5,2.27-8.46,2.77-1.23.18-1.66.43-2,1.07s-1.66,1.39-2.9,1.9a19.72,19.72,0,0,1-3.85.81c-1.93.3-3.24.61-3.57,1.8-.4,1.42-3.3,1.88-6,2.06-1.69.12-2.57.36-3.13,1.18-1,1.43-3.45,2-6.7,1.81a6.73,6.73,0,0,0-4.21.79,41.94,41.94,0,0,1-7.79,3c-1.11.33-3,.06-4.91.06-1.47,1.6-4.05,2.69-8.68,2.22-1.11,1.69-3.55,2.33-7.18,2.12a4.64,4.64,0,0,0-1.94.49,9,9,0,0,1-6,.76,3.6,3.6,0,0,0-1.39,0c-3.89,1.11-4.43,1.08-7.11-.41a26.58,26.58,0,0,1-5.27.8c-1.4-.09-2.59-.94-4.17-1.57a7.66,7.66,0,0,1-6.08-.53,8.73,8.73,0,0,0-3.94.19c-1,.35-.77,1,.69,1.52,6.43,2.27,12.69,4.65,19.11,6.93a36,36,0,0,0,4.45.9l-2.53.24.86.19c1.93.47,4,.85,5.77,1.43,2.25.74,1.78,2.18-.81,2.73-1.18.25-2.54.32-3.81.46,2.18,3-.92,4.36-8.86,3.72-1,1.86-3.79,2.4-7.65,2.18a10.16,10.16,0,0,0-2.23.48,27.33,27.33,0,0,1-4.65.84c-1.44,0-2,.21-2.5.78-1.87,2-4.67,2.58-9.15,2a11.05,11.05,0,0,0-2.3-.1c-3.67.31-5.21-.11-6.31-1.78-.23-.35-.49-.69-.88-1.22-1.15.7-2,1.27-3,1.78a9.7,9.7,0,0,1-9.39,0,3.71,3.71,0,0,0-1.72-.37c-3.87.57-5.49-.51-6.6-1.94a25.45,25.45,0,0,1-9.64-.6,36.53,36.53,0,0,0-4.6-.51c-4.48-.55-4.62-.66-4.43-2.79-5.36-1.25-6-1.92-3.59-4.09L114.74,70c-1.84-.34-4.28-.73-3.94-1.72.24-.72,2.16-1.45,3.69-1.92,4.89-1.48,10-2.79,14.92-4.26s9.72-3,14.53-4.7c-2.36.17-5-.94-7.13.52a7.91,7.91,0,0,1-2.9.15,14.19,14.19,0,0,1-2.39-.53c-1.71,2.53-2.22,2.59-8.5,1.07a5.8,5.8,0,0,1-1.62.94,8.59,8.59,0,0,1-3,.41c-2-.85-4.45-.22-6.15-.52-3.38-.6-6.73-1.23-10.24-1.67a3.78,3.78,0,0,1-1.72-.76,5.1,5.1,0,0,0-3.52-.7A8.76,8.76,0,0,1,89.9,53.92ZM213.38,36.13c1,.91.59,1.5-1.25,1.89a4.09,4.09,0,0,0-1.55.82c-.26.18-.54.54-.36.63a3.29,3.29,0,0,0,1.51.3c1.38-.11,2.75-.29,4.09-.49q9.33-1.39,18.64-2.83,6.48-1,12.91-2.09a7.75,7.75,0,0,0,1.55-.58C236.66,33.11,225.54,35.6,213.38,36.13ZM111.67,39.9c-1.56-1-3.19-1.66-3.92-2.52-.54-.65-1.08-.79-2.34-.88C98.21,36,90.89,36,83.82,35c-3.31-.49-7.06-.32-10.6-.46l-.24.55,3.44.46C82.18,36.27,88,37,93.68,37.78c5.14.72,10.21,1.56,15.35,2.29A15.19,15.19,0,0,0,111.67,39.9Zm37.56,20.72a26.31,26.31,0,0,0,4.45.07c2.79-.64,3.57-2,3.81-3.28S155,55,153.37,55.65c-1,.37-1.18,1.25-1.63,1.92-.28.41-.25.88-.58,1.28A22.42,22.42,0,0,1,149.23,60.62Zm23.36-1.18c.77-.34,1.31-.62,1.92-.85,2.57-1,2.8-3.07.32-4a5,5,0,0,0-2.12-.18c-4.06.84-4.68,2.88-1.4,4.3A10.38,10.38,0,0,1,172.59,59.44ZM159.82,35.53A7.86,7.86,0,0,0,161.26,34a1.5,1.5,0,0,0-.15-1.55,8.67,8.67,0,0,0-2.16-.26c-.23.71-.73,1.44-.59,2.13C158.45,34.77,159.42,35.22,159.82,35.53Z" transform="translate(-14.96 -21.64)"/><path d="M213.38,36.13c12.16-.53,23.28-3,35.54-2.35a7.75,7.75,0,0,1-1.55.58q-6.42,1.08-12.91,2.09-9.3,1.44-18.64,2.83c-1.34.2-2.71.38-4.09.49a3.29,3.29,0,0,1-1.51-.3c-.18-.09.1-.45.36-.63a4.09,4.09,0,0,1,1.55-.82C214,37.63,214.33,37,213.38,36.13Z" transform="translate(-14.96 -21.64)"/><path d="M111.67,39.9a15.19,15.19,0,0,1-2.64.17c-5.14-.73-10.21-1.57-15.35-2.29C88,37,82.18,36.27,76.42,35.52L73,35.06l.24-.55c3.54.14,7.29,0,10.6.46,7.07,1.05,14.39,1,21.59,1.53,1.26.09,1.8.23,2.34.88C108.48,38.24,110.11,38.94,111.67,39.9Z" transform="translate(-14.96 -21.64)"/><path d="M149.23,60.62a22.42,22.42,0,0,0,1.93-1.77c.33-.4.3-.87.58-1.28.45-.67.63-1.55,1.63-1.92,1.64-.61,4.35.48,4.12,1.76s-1,2.64-3.81,3.28A26.31,26.31,0,0,1,149.23,60.62Z" transform="translate(-14.96 -21.64)"/><path d="M172.59,59.44a10.38,10.38,0,0,0-1.28-.76c-3.28-1.42-2.66-3.46,1.4-4.3a5,5,0,0,1,2.12.18c2.48,1,2.25,3.07-.32,4C173.9,58.82,173.36,59.1,172.59,59.44Z" transform="translate(-14.96 -21.64)"/><path d="M159.82,35.53c-.4-.31-1.37-.76-1.46-1.25-.14-.69.36-1.42.59-2.13a8.67,8.67,0,0,1,2.16.26,1.5,1.5,0,0,1,.15,1.55A7.86,7.86,0,0,1,159.82,35.53Z" transform="translate(-14.96 -21.64)"/></svg>