<svg id="Layer_1" data-name="Layer 1" xmlns="http://www.w3.org/2000/svg" viewBox="0 0 290.69 60.47"><defs><style>.cls-1{fill:#fff;}</style></defs><title>logo_white</title><path class="cls-1" d="M74.94,32.28c-3.51.86-5.31-.2-7.89-1.05-2.94-1-5.28-2.77-10.08-2.37A7.37,7.37,0,0,1,51.17,27a3.85,3.85,0,0,0-2.66-1c-3.09-.32-5.82-.93-6.82-2.61-.25-.42-1.71-.72-2.71-1-2-.54-4.08-1-6-1.53-.63-.18-1.44-.56-1.43-.85.07-1.3-2.17-1.21-3.78-1.63-2.41-.62-4.5-1.5-6.77-2.23-1.52-.5-3.14-.92-4.65-1.41-1.31-.4-2.57-.84-4.21-1.4L14.25,13,6,9.43l.43-.33,2,.14L0,5.49l.63-.38C5.81,7,10.56,9.11,17.46,9.5,11.11,7.8,4.84,6.06,1.21,2.8L16.58,7.46l.36-.21L7.15,1.43l.62-.34c1.36.45,2.79.87,4.08,1.36C15.85,4,19.33,5.88,23.74,7A151,151,0,0,0,54,11.89c5.28.29,10.6.39,15.91.56a16,16,0,0,0,1.61,0c-1.6-1.4-3.14-2.77-4.69-4.14L67.5,8c5.26,3.89,14.21,4.18,22.43,5.14,4.39.51,8.81,1,13.27,1.28,4,.26,8,.3,12,.37a16.84,16.84,0,0,0,3-.36,12.78,12.78,0,0,1,5.77.09c2.79.77,10.64-.58,11.92-2a5.05,5.05,0,0,0,1.51-3.33c-.1-3,4-5,9.62-4.3,2.26.27,3.65.93,4.08,2.05a19.75,19.75,0,0,0,1.63,3.25c1.23,2,7.28,4.21,11.7,4.33a14.32,14.32,0,0,0,1.44-.22,18.29,18.29,0,0,1,6.68,0,20.69,20.69,0,0,0,5.15.31c7.52-.29,15.07-.49,22.22-1.81,1.63-.29,3.5-.3,5.18-.55,6.89-1,14.28-1.65,18.33-5.07l.92.34-3.89,3.92C245.64,12,266,6.9,285,0c-.32,1.63-3.2,2.15-5.09,3s-4.31,1.7-6.31,2.66a87.6,87.6,0,0,0,15.57-4.45c-3.46,3.12-8.93,5.22-15.5,6.78C280.27,7.44,285,5.36,290,3.48l.69.42-8.24,3.65,1.71-.09.52.26-7.49,3.64,1.12.18c-1.11,1.22-3.36,1.85-5.69,2.45-.7.17-1.83.31-2,.57-1.19,2.06-5,2.27-8.46,2.77-1.23.18-1.66.43-2,1.07a6.63,6.63,0,0,1-2.9,1.9,19.39,19.39,0,0,1-3.85.81c-1.93.3-3.24.61-3.57,1.8-.4,1.42-3.3,1.88-6,2.06-1.69.12-2.57.36-3.13,1.18-1,1.43-3.45,2-6.7,1.81a6.78,6.78,0,0,0-4.21.79,41.8,41.8,0,0,1-7.79,3c-1.11.33-3,.06-4.91.06-1.47,1.6-4,2.69-8.68,2.22-1.11,1.69-3.55,2.33-7.18,2.12a4.68,4.68,0,0,0-1.94.49,9,9,0,0,1-6,.76,3.61,3.61,0,0,0-1.39,0c-3.89,1.11-4.43,1.08-7.11-.41a26.86,26.86,0,0,1-5.27.8c-1.4-.09-2.59-.94-4.17-1.57a7.68,7.68,0,0,1-6.08-.53,8.75,8.75,0,0,0-3.94.19c-1,.35-.77,1,.69,1.52,6.43,2.27,12.69,4.65,19.11,6.93a37.3,37.3,0,0,0,4.45.9l-2.53.24.86.19c1.93.47,4,.85,5.77,1.43,2.25.74,1.78,2.18-.81,2.73-1.18.25-2.54.32-3.81.46,2.18,3-.92,4.36-8.86,3.72-1,1.86-3.79,2.4-7.65,2.18a10.55,10.55,0,0,0-2.23.48,28.16,28.16,0,0,1-4.65.84c-1.44,0-2,.21-2.5.78-1.87,2-4.67,2.58-9.15,2a11.05,11.05,0,0,0-2.3-.1c-3.67.31-5.21-.11-6.31-1.78-.23-.35-.49-.69-.88-1.22-1.15.7-2,1.27-3,1.78a9.68,9.68,0,0,1-9.39,0,3.68,3.68,0,0,0-1.72-.37c-3.87.57-5.49-.51-6.6-1.94a25.47,25.47,0,0,1-9.64-.6,35.56,35.56,0,0,0-4.6-.51c-4.48-.55-4.62-.66-4.43-2.79-5.36-1.25-6-1.92-3.59-4.09l-1.83-.3c-1.84-.34-4.28-.73-3.94-1.72.24-.72,2.16-1.45,3.69-1.92,4.89-1.48,10-2.79,14.92-4.26s9.72-3,14.53-4.7c-2.36.17-5-.94-7.13.52a7.86,7.86,0,0,1-2.9.15,14,14,0,0,1-2.39-.53c-1.71,2.53-2.22,2.59-8.5,1.07a5.72,5.72,0,0,1-1.62.94,8.71,8.71,0,0,1-3,.41c-2-.85-4.45-.22-6.15-.52-3.38-.6-6.73-1.23-10.24-1.67a3.77,3.77,0,0,1-1.72-.76,5.12,5.12,0,0,0-3.52-.7A8.77,8.77,0,0,1,74.94,32.28ZM198.42,14.49c1,.91.59,1.5-1.25,1.89a4.14,4.14,0,0,0-1.55.82c-.26.18-.54.54-.36.63a3.27,3.27,0,0,0,1.51.3c1.38-.11,2.75-.29,4.09-.49q9.33-1.39,18.64-2.83,6.48-1,12.91-2.09a7.6,7.6,0,0,0,1.55-.58C221.7,11.47,210.58,14,198.42,14.49ZM96.71,18.26c-1.56-1-3.19-1.66-3.92-2.52-.54-.65-1.08-.79-2.34-.88-7.2-.5-14.52-.5-21.59-1.5-3.31-.49-7.06-.32-10.6-.46l-.24.55,3.44.46c5.76.72,11.58,1.45,17.26,2.23,5.14.72,10.21,1.56,15.35,2.29A15.55,15.55,0,0,0,96.71,18.26ZM134.27,39a26.46,26.46,0,0,0,4.45.07c2.79-.64,3.57-2,3.81-3.28S140,33.36,138.41,34c-1,.37-1.18,1.25-1.63,1.92-.28.41-.25.88-.58,1.28A21.53,21.53,0,0,1,134.27,39Zm23.36-1.18c.77-.34,1.31-.62,1.92-.85,2.57-1,2.8-3.07.32-4a5.08,5.08,0,0,0-2.12-.18c-4.06.84-4.68,2.88-1.4,4.3A10.82,10.82,0,0,1,157.63,37.8ZM144.86,13.89a7.74,7.74,0,0,0,1.44-1.53,1.5,1.5,0,0,0-.15-1.55,8.75,8.75,0,0,0-2.16-.26c-.23.71-.73,1.44-.59,2.13C143.49,13.13,144.46,13.58,144.86,13.89Z" transform="translate(-0.04 -0.02)"/></svg>